<svg width="23" height="26" viewBox="0 0 23 26" fill="none" xmlns="http://www.w3.org/2000/svg">
<path d="M20.1813 0C21.6707 0 22.8719 1.2044 22.9428 2.62171V25.4226L20.1072 23.0149L18.55 21.5976L16.851 20.1167L17.5607 22.4524H2.69056C1.20546 22.4524 0 21.3243 0 19.8296V2.627C0 1.20969 1.20757 0.00317783 2.69586 0.00317783H20.1739L20.1813 0ZM13.7007 6.01986H13.6689L13.4549 6.23171C15.6508 6.86728 16.7132 7.85982 16.7132 7.85982C15.2981 7.15223 14.0227 6.79843 12.7473 6.65543C11.8257 6.51242 10.9042 6.58763 10.1256 6.65543H9.91376C9.4159 6.65543 8.35662 6.86728 6.93719 7.43399C6.44251 7.64902 6.15863 7.78991 6.15863 7.78991C6.15863 7.78991 7.22002 6.72852 9.5589 6.1618L9.4159 6.0188C9.4159 6.0188 7.64479 5.95101 5.7328 7.36408C5.7328 7.36408 3.82081 10.6944 3.82081 14.8002C3.82081 14.8002 4.88008 16.6433 7.78567 16.7132C7.78567 16.7132 8.20938 16.1486 8.63839 15.6518C7.00711 15.1561 6.37154 14.1646 6.37154 14.1646C6.37154 14.1646 6.51348 14.2345 6.7264 14.3765H6.78995C6.82173 14.3765 6.83656 14.3924 6.85351 14.4083V14.4146C6.87046 14.4316 6.88529 14.4464 6.91707 14.4464C7.26663 14.5905 7.61619 14.7324 7.90219 14.8701C8.39582 15.0841 9.03032 15.297 9.80889 15.4379C10.794 15.5809 11.9232 15.6497 13.2092 15.4379C13.8447 15.2949 14.4803 15.155 15.1159 14.8712C15.529 14.6593 16.0374 14.4475 16.5957 14.0905C16.5957 14.0905 15.9601 15.082 14.26 15.5777C14.6095 16.0713 15.1021 16.637 15.1021 16.637C18.0087 16.5734 19.1379 14.7303 19.2015 14.8087C19.2015 10.7093 17.2789 7.37255 17.2789 7.37255C15.547 6.08659 13.9263 6.03787 13.6403 6.03787L13.6996 6.01668L13.7007 6.01986ZM13.8786 10.6944C14.6233 10.6944 15.2239 11.33 15.2239 12.1086C15.2239 12.8924 14.6201 13.528 13.8786 13.528C13.1371 13.528 12.5333 12.8924 12.5333 12.1149C12.5355 11.3311 13.1403 10.6976 13.8786 10.6976V10.6944ZM9.06634 10.6944C9.80783 10.6944 10.4074 11.33 10.4074 12.1086C10.4074 12.8924 9.80359 13.528 9.0621 13.528C8.32061 13.528 7.71682 12.8924 7.71682 12.1149C7.71682 11.3311 8.32061 10.6976 9.0621 10.6976L9.06634 10.6944Z" fill="white"/>
</svg>
